<svg viewBox="0 0 800 600" xmlns="http://www.w3.org/2000/svg" role="img" aria-label="Laptop forensic utility services illustration">
  <defs>
    <linearGradient id="lapBg" x1="0" y1="0" x2="1" y2="1">
      <stop offset="0%" stop-color="#0f172a"/>
      <stop offset="100%" stop-color="#2563eb"/>
    </linearGradient>
  </defs>
  <rect width="800" height="600" rx="60" fill="url(#lapBg)"/>
  <rect x="140" y="160" width="520" height="320" rx="40" fill="#1e293b"/>
  <rect x="180" y="200" width="440" height="220" rx="30" fill="#0ea5e9" opacity="0.15"/>
  <rect x="210" y="230" width="380" height="160" rx="24" fill="#0f172a"/>
  <rect x="240" y="280" width="320" height="20" rx="10" fill="#38bdf8"/>
  <rect x="240" y="320" width="260" height="16" rx="8" fill="#94a3b8"/>
  <rect x="240" y="350" width="200" height="16" rx="8" fill="#94a3b8"/>
  <rect x="180" y="500" width="440" height="20" rx="10" fill="#475569"/>
  <path d="M240 430 C280 390 340 390 380 430" stroke="#38bdf8" stroke-width="14" fill="none" stroke-linecap="round"/>
  <path d="M420 430 C460 390 520 390 560 430" stroke="#38bdf8" stroke-width="14" fill="none" stroke-linecap="round"/>
  <text x="400" y="560" fill="#e2e8f0" font-size="44" font-family="Inter, sans-serif" text-anchor="middle" font-weight="700">Forensic Tools</text>
</svg>
